<?xml version="1.0" encoding="UTF-8" standalone="no"?>
<!-- Created with Inkscape (http://www.inkscape.org/) -->

<svg
   width="76.986786mm"
   height="20.956551mm"
   viewBox="0 0 76.986786 20.956551"
   version="1.1"
   id="svg5"
   inkscape:version="1.2.2 (732a01da63, 2022-12-09)"
   sodipodi:docname="usethis.svg"
   xmlns:inkscape="http://www.inkscape.org/namespaces/inkscape"
   xmlns:sodipodi="http://sodipodi.sourceforge.net/DTD/sodipodi-0.dtd"
   xmlns="http://www.w3.org/2000/svg"
   xmlns:svg="http://www.w3.org/2000/svg">
  <sodipodi:namedview
     id="namedview7"
     pagecolor="#ffffff"
     bordercolor="#000000"
     borderopacity="0.25"
     inkscape:showpageshadow="2"
     inkscape:pageopacity="0.0"
     inkscape:pagecheckerboard="0"
     inkscape:deskcolor="#d1d1d1"
     inkscape:document-units="mm"
     showgrid="false"
     inkscape:zoom="1.6819304"
     inkscape:cx="200.36501"
     inkscape:cy="-74.022088"
     inkscape:window-width="2400"
     inkscape:window-height="1271"
     inkscape:window-x="-9"
     inkscape:window-y="-9"
     inkscape:window-maximized="1"
     inkscape:current-layer="g346" />
  <defs
     id="defs2">
    <rect
       x="280.62991"
       y="91.264183"
       width="28.771908"
       height="81.255569"
       id="rect1327" />
    <rect
       x="412.02655"
       y="163.50259"
       width="71.049316"
       height="88.291405"
       id="rect560" />
    <rect
       x="412.02655"
       y="163.50259"
       width="71.049316"
       height="88.291405"
       id="rect560-6" />
    <filter
       id="mask-powermask-path-effect1242_inverse"
       inkscape:label="filtermask-powermask-path-effect1242"
       style="color-interpolation-filters:sRGB"
       height="100"
       width="100"
       x="-50"
       y="-50">
      <feColorMatrix
         id="mask-powermask-path-effect1242_primitive1"
         values="1"
         type="saturate"
         result="fbSourceGraphic" />
      <feColorMatrix
         id="mask-powermask-path-effect1242_primitive2"
         values="-1 0 0 0 1 0 -1 0 0 1 0 0 -1 0 1 0 0 0 1 0 "
         in="fbSourceGraphic" />
    </filter>
    <rect
       x="412.02655"
       y="163.50259"
       width="71.049316"
       height="88.291405"
       id="rect560-6-9" />
    <rect
       x="412.02655"
       y="163.50259"
       width="71.049316"
       height="88.291405"
       id="rect560-6-4" />
  </defs>
  <g
     inkscape:label="Layer 1"
     inkscape:groupmode="layer"
     id="layer1"
     transform="translate(-35.118402,-39.963452)">
    <g
       id="g346">
      <path
         d="m 44.985967,60.919994 q -0.204964,0 -0.204964,-0.234245 0,-0.292806 0.05856,-0.849137 0.08784,-0.585612 0.08784,-0.96626 0,-0.05856 0,-0.08784 0,-0.05856 0,-0.08784 -1.141943,1.112662 -2.313167,1.610433 -1.141943,0.468489 -2.518132,0.468489 -0.936979,0 -1.698274,-0.409928 -0.761296,-0.380648 -1.200505,-1.141944 -0.439209,-0.790576 -0.439209,-1.932519 v -5.943962 q 0,-0.644173 -0.292806,-1.024821 -0.292806,-0.380648 -0.96626,-0.644173 -0.146403,-0.05856 -0.263525,-0.146403 -0.117123,-0.08784 -0.117123,-0.322087 0,-0.263525 0.117123,-0.351367 0.146403,-0.08784 0.322086,-0.117122 0.995541,-0.05856 1.522592,-0.146403 0.556331,-0.117123 1.376188,-0.322087 0.08784,-0.02928 0.117122,-0.02928 0.05856,0 0.117123,0 0.322086,0 0.292806,0.409929 -0.08784,0.673454 -0.146403,1.141943 -0.02928,0.439209 -0.02928,1.112663 v 5.709717 q 0,0.702734 0.351367,1.317627 0.351367,0.585612 0.907699,0.96626 0.585612,0.380648 1.200504,0.380648 0.761296,0 1.317627,-0.08784 0.585612,-0.08784 1.141944,-0.49777 0.322086,-0.234245 0.819856,-0.761296 0.497771,-0.527051 0.497771,-1.434749 v -5.35835 q 0,-0.614893 -0.380648,-0.907699 -0.351367,-0.322086 -0.819857,-0.439209 -0.468489,-0.117122 -0.761295,-0.117122 -0.263526,0 -0.439209,-0.08784 -0.175684,-0.117122 -0.175684,-0.409928 0,-0.263526 0.175684,-0.351368 0.204964,-0.08784 0.439209,-0.08784 0.907698,-0.02928 1.49331,-0.05856 0.614893,-0.05856 1.083382,-0.146403 0.49777,-0.117122 1.024821,-0.263525 0.05856,-0.02928 0.146403,-0.02928 0.08784,-0.02928 0.146403,-0.02928 0.380648,0 0.380648,0.322086 0,0.02928 -0.02928,0.117123 0,0.05856 -0.02928,0.146403 -0.02928,0.08784 -0.08784,0.49777 -0.02928,0.409928 -0.08784,0.849137 -0.02928,0.439209 -0.02928,0.673454 v 6.763819 q 0,0.790576 0.146403,1.141943 0.175683,0.322087 0.380647,0.322087 0.234245,0 0.673454,-0.02928 0.46849,-0.05856 0.673454,-0.05856 0.146403,0 0.292806,0.05856 0.146403,0.05856 0.146403,0.322087 0,0.234245 -0.117122,0.322086 -0.117123,0.05856 -0.292806,0.08784 -1.141944,0.146403 -1.961801,0.439209 -0.819856,0.292806 -1.46403,0.556332 -0.08784,0.02928 -0.263525,0.08784 -0.175684,0.08784 -0.322087,0.08784 z"
         id="path317"
         style="font-size:29.2806px;line-height:0.8;font-family:'EB Garamond';-inkscape-font-specification:'EB Garamond';fill:#999999;stroke-width:0.238125;stroke-dasharray:0.47625, 0.47625" />
      <path
         d="m 53.916563,60.773591 q -0.907699,0 -1.698275,-0.292806 -0.790576,-0.263525 -1.346908,-0.761295 -0.146403,-0.322087 -0.234245,-1.083383 -0.05856,-0.761295 -0.08784,-1.259065 0,-0.263526 0.380647,-0.263526 0.117123,0 0.204965,0.05856 0.117122,0.02928 0.146403,0.146403 0.380647,1.43475 1.200504,2.049642 0.849138,0.614893 1.698275,0.614893 0.849137,0 1.434749,-0.556331 0.614893,-0.585612 0.614893,-1.43475 0,-0.790576 -0.527051,-1.346907 -0.527051,-0.585612 -1.844678,-1.405469 -0.99554,-0.614893 -1.610433,-1.171224 -0.614892,-0.556332 -0.907698,-1.141944 -0.263526,-0.585612 -0.263526,-1.317627 0,-0.936979 0.439209,-1.698274 0.439209,-0.761296 1.317627,-1.200505 0.878418,-0.46849 2.196045,-0.46849 0.878418,0 1.46403,0.175684 0.585612,0.175684 0.878418,0.380648 0.234245,0.322086 0.380648,1.024821 0.175684,0.673454 0.175684,1.288346 0,0.204964 -0.292806,0.204964 -0.175684,0 -0.351367,-0.05856 -0.146403,-0.08784 -0.204965,-0.204964 -0.380647,-0.96626 -0.966259,-1.46403 -0.556332,-0.527051 -1.405469,-0.527051 -0.732015,0 -1.317627,0.439209 -0.556332,0.439209 -0.556332,1.288347 0,0.673453 0.409929,1.200504 0.439209,0.527051 1.610433,1.200505 1.698275,0.96626 2.518131,1.815397 0.849138,0.819857 0.849138,2.196045 0,1.581152 -1.200505,2.576693 -1.200504,0.99554 -3.103744,0.99554 z"
         id="path319"
         style="font-size:29.2806px;line-height:0.8;font-family:'EB Garamond';-inkscape-font-specification:'EB Garamond';fill:#999999;stroke-width:0.238125;stroke-dasharray:0.47625, 0.47625" />
      <path
         d="m 65.394555,60.802872 q -1.610433,0 -2.810938,-0.790576 -1.200504,-0.790577 -1.873958,-2.225326 -0.673454,-1.46403 -0.673454,-3.367269 0,-1.698275 0.761296,-3.074463 0.790576,-1.405469 2.078922,-2.254606 1.288347,-0.849138 2.810938,-0.849138 1.171224,0 2.078923,0.46849 0.907698,0.46849 1.405468,1.317627 0.527051,0.819857 0.527051,1.903239 0,0.907699 -0.878418,0.907699 h -6.178206 q -0.409929,0 -0.585612,0.234244 -0.146403,0.204965 -0.146403,0.849138 0,1.405469 0.614892,2.576693 0.614893,1.141943 1.639714,1.844677 1.024821,0.673454 2.254606,0.673454 0.878418,0 1.581152,-0.322086 0.732015,-0.351368 1.288347,-0.995541 0.117122,-0.146403 0.175683,-0.175683 0.05856,-0.05856 0.146403,-0.05856 0.234245,0 0.234245,0.292806 0,0.556332 -0.527051,1.229786 -0.439209,0.556331 -1.054101,0.966259 -0.614893,0.409929 -1.346908,0.614893 -0.732015,0.234245 -1.522591,0.234245 z M 62.70074,51.93085 h 2.664534 q 0.702735,0 1.200505,-0.02928 0.49777,-0.02928 0.96626,-0.117122 0.146403,-0.02928 0.175683,-0.175684 0.05856,-0.175683 0.05856,-0.468489 0,-0.849138 -0.761296,-1.43475 -0.732015,-0.614892 -1.756836,-0.614892 -0.673454,0 -1.346908,0.409928 -0.673453,0.380648 -1.112662,0.96626 -0.439209,0.585612 -0.439209,1.171224 0,0.292806 0.351367,0.292806 z"
         id="path321"
         style="font-size:29.2806px;line-height:0.8;font-family:'EB Garamond';-inkscape-font-specification:'EB Garamond';fill:#999999;stroke-width:0.238125;stroke-dasharray:0.47625, 0.47625" />
      <path
         d="m 76.111239,60.773591 q -1.434749,0 -2.254606,-0.878418 -0.790576,-0.878418 -0.790576,-2.605973 v -6.793099 q 0,-0.234245 -0.175684,-0.322087 -0.175684,-0.117122 -0.761296,-0.117122 h -0.175683 q -0.146403,0 -0.263526,-0.175684 -0.08784,-0.204964 -0.08784,-0.409928 0,-0.05856 0.08784,-0.175684 0.08784,-0.117122 0.117123,-0.146403 0.585612,-0.409928 1.054101,-0.819857 0.497771,-0.409928 0.878418,-0.790576 0.409929,-0.409928 0.673454,-0.732015 0.146403,-0.146403 0.234245,-0.234245 0.117122,-0.117122 0.263525,-0.117122 0.146403,0 0.263526,0.05856 0.146403,0.05856 0.117122,0.263526 l -0.146403,1.317626 q -0.02928,0.322087 0.146403,0.439209 0.175684,0.117123 0.556332,0.117123 h 3.337988 q 0.117122,0 0.204964,0.204964 0.08784,0.175684 0.08784,0.439209 0,0.263525 -0.08784,0.527051 -0.08784,0.234245 -0.204964,0.234245 h -2.898779 q -0.732015,0 -0.96626,0.117122 -0.204964,0.117122 -0.204964,0.702734 v 5.768279 q 0,1.171224 0.49777,1.844677 0.49777,0.673454 1.434749,0.673454 0.849138,0 1.317627,-0.117122 0.46849,-0.146403 0.849138,-0.409929 0.05856,-0.05856 0.117122,-0.05856 0.117122,0 0.146403,0.146403 0.05856,0.117123 0.05856,0.263526 0,0.146403 -0.49777,0.585612 -0.46849,0.439209 -1.259066,0.819856 -0.761295,0.380648 -1.668994,0.380648 z"
         style="font-size:29.2806px;line-height:0.8;font-family:'EB Garamond';-inkscape-font-specification:'EB Garamond';fill:#00c000;stroke-width:0.238125;stroke-dasharray:0.47625, 0.47625"
         id="path323" />
      <g
         aria-label="ɪ"
         transform="matrix(0.26458333,0,0,0.17303765,20.651228,30.330366)"
         id="text1325"
         style="font-size:110.667px;line-height:0.8;font-family:'EB Garamond';-inkscape-font-specification:'EB Garamond';white-space:pre;shape-inside:url(#rect1327);fill:#00c000;fill-opacity:1;stroke-width:0.9;stroke-dasharray:1.8, 1.8">
        <path
           d="m 285.50021,165.92489 c -0.36889,0 -0.84845,-0.0738 -1.43867,-0.22134 -0.51645,-0.0738 -0.77467,-0.33199 -0.77467,-0.77466 2.68387,-13.22403 1.60778,-36.67407 0.664,-43.16013 0,-0.44267 0.25822,-0.7009 0.77467,-0.77467 0.59022,-0.14756 1.06978,-0.22134 1.43867,-0.22134 1.47556,0 2.54534,0.0369 3.20934,0.11067 0.73778,0.0738 1.40178,0.18445 1.99201,0.332 0.664,0.0738 1.62311,0.11067 2.87734,0.11067 1.32801,0 2.3609,-0.0369 3.09868,-0.11067 0.73778,-0.14755 1.51245,-0.25822 2.324,-0.332 0.81156,-0.0738 1.95512,-0.11067 3.43068,-0.11067 0.44267,0 0.92222,0.0738 1.43867,0.22134 0.51645,0.0738 0.77467,0.332 0.77467,0.77467 -1.43747,11.10379 -1.47901,32.04492 0.332,43.16013 0,0.44267 -0.29511,0.70089 -0.88533,0.77466 -0.51645,0.14756 -0.95912,0.22134 -1.32801,0.22134 -1.47556,0 -2.65601,-0.0738 -3.54134,-0.22134 -0.81156,-0.0738 -1.58623,-0.14755 -2.32401,-0.22133 -0.73778,-0.0738 -1.77067,-0.11067 -3.09868,-0.11067 -1.25422,0 -2.28711,0.0369 -3.09867,0.11067 -0.73778,0.0738 -1.54934,0.14756 -2.43468,0.22133 -0.81155,0.14756 -1.95511,0.22134 -3.43067,0.22134 z"
           id="path1426"
           sodipodi:nodetypes="sccccsccscssccccscssccs"
           style="fill:#00c000;fill-opacity:1" />
      </g>
      <path
         id="rect234"
         style="fill:#00c000;fill-opacity:1;stroke-width:0.238125;stroke-dasharray:0.47625, 0.47625"
         d="m 96.634543,44.206892 c -0.80613,0 -1.455208,0.649079 -1.455208,1.455208 v 3.696932 c 0,0.80613 0.649078,1.455208 1.455208,1.455208 h 3.854037 c 0.80611,0 1.4552,-0.649078 1.4552,-1.455208 V 45.6621 c 0,-0.806129 -0.64909,-1.455208 -1.4552,-1.455208 z m 0.624252,2.526977 a 0.77671474,0.77671474 0 0 1 0.776697,0.776697 0.77671474,0.77671474 0 0 1 -0.776697,0.776697 0.77671474,0.77671474 0 0 1 -0.776697,-0.776697 0.77671474,0.77671474 0 0 1 0.776697,-0.776697 z m 2.605525,0 a 0.77671474,0.77671474 0 0 1 0.7767,0.776697 0.77671474,0.77671474 0 0 1 -0.7767,0.776697 0.77671474,0.77671474 0 0 1 -0.776696,-0.776697 0.77671474,0.77671474 0 0 1 0.776696,-0.776697 z" />
      <g
         aria-label="s"
         transform="matrix(1.0984503,0,0,1.0984503,-352.51367,-138.85648)"
         id="text558"
         style="font-size:26.6562px;line-height:0.8;font-family:Calibri;-inkscape-font-specification:Calibri;white-space:pre;shape-inside:url(#rect560);fill:#00c000;fill-opacity:1;stroke-width:0.9;stroke-dasharray:1.8, 1.8">
        <path
           d="m 418.64858,181.60618 c -0.38295,0 -1.67726,-0.18245 -2.39135,-0.6543 -1.51464,-1.20601 -3.22983,-3.16595 -4.5433,-3.46759 l -0.76511,-2.06638 c 0.86144,1.14549 0.81295,0.51894 3.33212,2.23685 0.39426,0.26886 2.65367,2.50944 3.1837,2.85211 0.51732,0.33446 1.20436,0.39359 1.42388,0.37958 0.5143,-0.0328 0.95074,-0.16882 1.30616,-0.50646 0.37319,-0.35542 0.55978,-0.79081 0.55978,-1.30616 0,-0.47981 -0.15994,-0.88854 -0.47982,-1.22618 -0.31987,-0.35542 -0.87965,-0.78192 -1.67934,-1.2795 -0.60421,-0.37319 -1.0929,-0.7286 -1.46609,-1.06625 -0.37319,-0.33765 -0.64863,-0.68418 -0.82634,-1.03959 -0.15993,-0.35542 -0.2399,-0.75526 -0.2399,-1.19953 0,-0.56867 0.13328,-1.08402 0.39984,-1.54606 0.26656,-0.46204 0.6664,-0.82634 1.19953,-1.0929 0.53312,-0.28433 1.19952,-0.4265 1.99921,-0.4265 0.53313,0 0.9774,0.0533 1.33281,0.15993 0.35542,0.10663 0.62198,0.22214 0.79969,0.34653 -0.0829,0.66019 -0.15383,0.46377 -1.14622,0.71973 -0.33765,-0.31987 -0.76415,-0.47981 -1.2795,-0.47981 -0.44427,0 -0.84411,0.13328 -1.19952,0.39984 -0.33765,0.26657 -0.50647,0.65753 -0.50647,1.17288 0,0.40873 0.12439,0.77303 0.37318,1.0929 0.26657,0.31987 0.75527,0.68417 1.4661,1.0929 1.0307,0.58644 1.79484,1.13734 2.29243,1.65269 0.51535,0.49758 0.77303,1.16398 0.77303,1.99921 0,0.95963 -0.3643,1.74154 -1.09291,2.34575 -0.7286,0.60421 -1.67045,0.90631 -2.82555,0.90631 z"
           style="font-family:'EB Garamond';-inkscape-font-specification:'EB Garamond';fill:#00c000;fill-opacity:1"
           id="path1374"
           sodipodi:nodetypes="ccccssscsccscsscssccscscccsscc" />
      </g>
      <path
         id="path3244"
         style="font-size:38.6881px;line-height:0.8;font-family:'EB Garamond';-inkscape-font-specification:'EB Garamond';white-space:pre;fill:#00c000;fill-opacity:1;stroke-width:0.681153;stroke-dasharray:1.36231, 1.36231"
         d="m 84.472363,39.963452 c -0.03904,0 -0.09762,0.01934 -0.1757,0.0584 -0.312325,0.136639 -0.673211,0.283084 -1.083138,0.439249 -0.409927,0.136639 -0.810549,0.263216 -1.20096,0.380339 -0.370885,0.117122 -0.692549,0.224859 -0.965832,0.322461 -0.156166,0.05856 -0.234611,0.175718 -0.234611,0.351399 0,0.23423 0.08786,0.370741 0.263549,0.409795 0.507529,0.07808 0.849062,0.321811 1.024744,0.731738 0.175682,0.390411 0.26355,0.849098 0.26355,1.376143 v 14.669906 c -0.01952,0.390406 -0.165967,0.663423 -0.43925,0.819588 -0.253762,0.156161 -0.526779,0.283254 -0.819588,0.380855 -0.448965,0.136645 -0.673344,0.293024 -0.673344,0.468706 0,0.214723 0.195088,0.321944 0.585494,0.321944 0.390406,0 0.69323,-0.01986 0.907955,-0.05891 0.234245,-0.01953 0.448685,-0.03887 0.643888,-0.05839 0.214725,-0.01953 0.488258,-0.02945 0.820105,-0.02945 0.351364,0 0.614451,0.0099 0.790133,0.02945 0.175686,0.01953 0.361352,0.03887 0.556555,0.05839 0.195203,0.03905 0.488094,0.05891 0.878499,0.05891 0.390407,0 0.585494,-0.107221 0.585494,-0.321944 0,-0.117116 -0.05858,-0.204984 -0.175699,-0.26355 -0.0976,-0.07808 -0.253464,-0.146589 -0.468189,-0.205156 -0.292804,-0.0976 -0.556409,-0.224694 -0.790649,-0.380855 -0.214719,-0.156165 -0.331873,-0.429182 -0.3514,-0.819588 v -5.943823 c 0,-0.07564 5.42e-4,-0.148652 0.0021,-0.219109 v -3.057694 c -0.0015,-0.07257 -0.0021,-0.151347 -0.0021,-0.237195 v -5.094779 c 0,-1.054101 0.01934,-1.844382 0.05839,-2.371432 0.03903,-0.52705 0.07825,-0.898386 0.117306,-1.11311 0.05856,-0.214725 0.08785,-0.380527 0.08785,-0.497644 0,-0.05855 -0.01986,-0.107191 -0.05891,-0.146244 -0.03904,-0.03905 -0.08768,-0.0584 -0.146245,-0.0584 z m 4.597136,8.52041 c -0.605131,0 -1.190906,0.107225 -1.756999,0.321944 -0.346928,0.131595 -0.675197,0.278328 -0.98547,0.43925 0.0067,0.02584 0.01137,0.05215 0.01137,0.07906 V 50.1835 c 0.0026,-5.28e-4 0.0051,-0.001 0.0078,-0.0016 0.488013,-0.117123 0.917409,-0.1757 1.288293,-0.1757 0.429449,0 0.849428,0.117159 1.259355,0.3514 0.409927,0.234246 0.75146,0.556422 1.024743,0.966349 0.292805,0.390406 0.43925,0.829737 0.43925,1.317749 v 5.973279 c 0,0.390405 -0.117159,0.683296 -0.3514,0.878499 -0.234245,0.175682 -0.497845,0.312193 -0.790649,0.409794 -0.214724,0.07809 -0.380521,0.146596 -0.497644,0.205156 -0.117123,0.03904 -0.1757,0.12691 -0.1757,0.26355 0,0.214723 0.195088,0.321944 0.585494,0.321944 0.390406,0 0.683292,-0.01986 0.878499,-0.05891 0.214725,-0.01953 0.419747,-0.03887 0.61495,-0.05839 0.195203,-0.01953 0.458808,-0.02945 0.790649,-0.02945 0.351369,0 0.614968,0.0099 0.79065,0.02945 l 0.585494,0.05839 c 0.214719,0.03905 0.517026,0.05891 0.907438,0.05891 0.390406,0 0.586011,-0.107221 0.586011,-0.321944 0,-0.117116 -0.05858,-0.204984 -0.1757,-0.26355 -0.117123,-0.07808 -0.283437,-0.146589 -0.498161,-0.205156 -0.292805,-0.0976 -0.565826,-0.234112 -0.819588,-0.409794 -0.253767,-0.195203 -0.380856,-0.488094 -0.380856,-0.878499 v -6.148979 c 0,-1.151701 -0.322175,-2.098362 -0.966349,-2.840137 -0.624651,-0.76129 -1.414938,-1.142049 -2.371431,-1.142049 z" />
      <g
         aria-label="ʜ"
         transform="matrix(0.75683621,0,0,0.75683621,-224.87077,-82.804379)"
         id="text558-2-7"
         style="font-size:38.6881px;line-height:0.8;font-family:Calibri;-inkscape-font-specification:Calibri;white-space:pre;shape-inside:url(#rect560-6-4);fill:#00c000;fill-opacity:1;stroke-width:0.9;stroke-dasharray:1.8, 1.8">
        <path
           d="m 428.66325,187.04935 c 0,0.51584 0.18054,0.86403 0.54163,1.04458 0.38688,0.18054 0.77376,0.33529 1.16064,0.46425 0.20634,0.0774 0.39978,0.16765 0.58032,0.27082 0.20634,0.0774 0.30951,0.21924 0.30951,0.42557 0,0.18055 -0.11606,0.28371 -0.34819,0.3095 -0.20634,0.0258 -0.38689,0.0387 -0.54164,0.0387 -0.49005,0 -0.87693,-0.0258 -1.16064,-0.0774 -0.28371,-0.0258 -0.55453,-0.0516 -0.81245,-0.0774 -0.23213,-0.0258 -0.58032,-0.0387 -1.04458,-0.0387 -0.43847,0 -0.78666,0.0129 -1.04458,0.0387 -0.25792,0.0258 -0.52874,0.0516 -0.81245,0.0774 -0.25792,0.0516 -0.6448,0.0774 -1.16064,0.0774 -0.15475,0 -0.34819,-0.0129 -0.58032,-0.0387 -0.20634,-0.0258 -0.30951,-0.12897 -0.30951,-0.3095 0,-0.20633 0.0903,-0.34819 0.27082,-0.42557 0.20633,-0.10317 0.41267,-0.19344 0.61901,-0.27082 0.38688,-0.12896 0.74797,-0.28371 1.08327,-0.46425 0.36109,-0.18055 0.54163,-0.52874 0.54163,-1.04458 -0.41788,-2.3255 3.25932,-2.32656 2.70817,0 z"
           style="font-family:'EB Garamond';-inkscape-font-specification:'EB Garamond';fill:#00c000;fill-opacity:1"
           id="path2352"
           sodipodi:nodetypes="ccccscsccsscscsccccc" />
      </g>
      <path
         id="rect1481"
         style="fill:#00c000;stroke-width:0.238125;stroke-dasharray:0.47625, 0.47625"
         d="m 98.561558,49.893787 c 0.425571,0 0.768178,0.342608 0.768178,0.768178 v 1.133272 c 0,0.425571 -0.342607,0.768178 -0.768178,0.768178 -0.42557,0 -0.768177,-0.342607 -0.768177,-0.768178 v -1.133272 c 0,-0.42557 0.342607,-0.768178 0.768177,-0.768178 z" />
      <path
         id="rect1481-9"
         style="fill:#00c000;stroke-width:0.238125;stroke-dasharray:0.47625, 0.47625"
         d="m 101.94378,46.175755 c 0.42557,0 0.76817,0.342607 0.76817,0.768177 v 1.133272 c 0,0.425571 -0.3426,0.768178 -0.76817,0.768178 -0.42557,0 -0.76818,-0.342607 -0.76818,-0.768178 v -1.133272 c 0,-0.42557 0.34261,-0.768177 0.76818,-0.768177 z" />
      <path
         id="rect1481-9-9"
         style="fill:#00c000;stroke-width:0.238125;stroke-dasharray:0.47625, 0.47625"
         d="m 98.561558,42.872078 c 0.425571,0 0.768178,0.342607 0.768178,0.768178 v 1.133272 c 0,0.42557 -0.342607,0.768177 -0.768178,0.768177 -0.42557,0 -0.768177,-0.342607 -0.768177,-0.768177 v -1.133272 c 0,-0.425571 0.342607,-0.768178 0.768177,-0.768178 z" />
      <path
         id="rect1481-4"
         style="fill:#00c000;stroke-width:0.238125;stroke-dasharray:0.47625, 0.47625"
         d="m 95.179333,46.175755 c 0.425571,0 0.768178,0.342607 0.768178,0.768177 v 1.133272 c 0,0.425571 -0.342607,0.768178 -0.768178,0.768178 -0.42557,0 -0.768177,-0.342607 -0.768177,-0.768178 v -1.133272 c 0,-0.42557 0.342607,-0.768177 0.768177,-0.768177 z" />
      <path
         id="rect3241"
         style="fill:#00c000;fill-opacity:1;stroke-width:0.146159;stroke-dasharray:0.292317, 0.292317"
         inkscape:transform-center-x="-5.2558296"
         inkscape:transform-center-y="-4.7274658"
         d="m 89.851668,50.687501 -0.49316,-1.951321 c 0,0 1.944802,0.103959 2.996638,2.197462 0.433541,0.86289 3.968889,3.840113 3.968889,3.840113 l 0.03712,1.060575 c 0,0 -1.330395,0.145273 -3.953734,-2.138109 -1.010966,-0.879956 -2.555748,-3.00872 -2.555748,-3.00872 z"
         sodipodi:nodetypes="ccsccsc" />
      <path
         id="path3247"
         style="fill:#00c000;fill-opacity:1;stroke-width:0.223526;stroke-dasharray:0.447052, 0.447052"
         d="m 110.21667,48.61816 c -0.80161,0.197782 -1.26938,1.095707 -1.04469,2.005389 0.16735,0.677583 0.9098,1.661303 1.05344,1.209606 l -2.9e-4,-1.6822 c -5e-5,-0.342043 -0.0826,-0.495554 0.21067,-0.567949 0.29324,-0.07239 0.33824,0.104309 0.42533,0.434372 l 0.44841,1.699377 c 0.38597,0.331073 0.93186,-1.132109 0.76466,-1.809702 -0.22443,-0.909536 -1.05606,-1.486584 -1.85751,-1.288896 z"
         sodipodi:nodetypes="cscssscscc" />
      <path
         id="path3247-1"
         style="fill:#00c000;fill-opacity:1;stroke-width:0.223526;stroke-dasharray:0.447052, 0.447052"
         d="m 87.199925,49.26727 c -0.419288,-0.711262 -1.413625,-0.901978 -2.220709,-0.425929 -0.601165,0.354577 -1.330746,1.347879 -0.85683,1.355996 l 1.611508,-0.482536 c 0.327671,-0.09811 0.451073,-0.221201 0.604505,0.03901 0.153418,0.26018 -0.003,0.353947 -0.294205,0.532004 l -1.499495,0.916771 c -0.206526,0.464683 1.351737,0.56819 1.952955,0.213753 0.807019,-0.475758 1.121432,-1.437911 0.70228,-2.149046 z"
         sodipodi:nodetypes="cscssscscc" />
    </g>
  </g>
</svg>
